<svg xmlns="http://www.w3.org/2000/svg" xmlns:xlink="http://www.w3.org/1999/xlink" width="100" zoomAndPan="magnify" viewBox="0 0 75 74.999997" height="100" preserveAspectRatio="xMidYMid meet" version="1.0"><defs><g/></defs><rect x="-7.5" width="90" fill="#ffffff" y="-7.5" height="89.999996" fill-opacity="1"/><rect x="-7.5" width="90" fill="#ffffff" y="-7.5" height="89.999996" fill-opacity="1"/><g fill="#000000" fill-opacity="1"><g transform="translate(5.693502, 44.624995)"><g><path d="M 0.71875 -6.140625 C 0.71875 -7.367188 0.960938 -8.457031 1.453125 -9.40625 C 1.953125 -10.363281 2.625 -11.097656 3.46875 -11.609375 C 4.3125 -12.128906 5.253906 -12.390625 6.296875 -12.390625 C 7.203125 -12.390625 7.992188 -12.203125 8.671875 -11.828125 C 9.359375 -11.460938 9.90625 -11.003906 10.3125 -10.453125 L 10.3125 -12.1875 L 13.421875 -12.1875 L 13.421875 0 L 10.3125 0 L 10.3125 -1.78125 C 9.914062 -1.207031 9.367188 -0.734375 8.671875 -0.359375 C 7.984375 0.015625 7.179688 0.203125 6.265625 0.203125 C 5.242188 0.203125 4.3125 -0.0625 3.46875 -0.59375 C 2.625 -1.125 1.953125 -1.867188 1.453125 -2.828125 C 0.960938 -3.785156 0.71875 -4.890625 0.71875 -6.140625 Z M 10.3125 -6.09375 C 10.3125 -6.84375 10.164062 -7.484375 9.875 -8.015625 C 9.582031 -8.554688 9.1875 -8.96875 8.6875 -9.25 C 8.1875 -9.539062 7.648438 -9.6875 7.078125 -9.6875 C 6.503906 -9.6875 5.976562 -9.546875 5.5 -9.265625 C 5.019531 -8.984375 4.628906 -8.570312 4.328125 -8.03125 C 4.023438 -7.5 3.875 -6.867188 3.875 -6.140625 C 3.875 -5.398438 4.023438 -4.753906 4.328125 -4.203125 C 4.628906 -3.660156 5.023438 -3.242188 5.515625 -2.953125 C 6.003906 -2.660156 6.523438 -2.515625 7.078125 -2.515625 C 7.648438 -2.515625 8.1875 -2.65625 8.6875 -2.9375 C 9.1875 -3.21875 9.582031 -3.625 9.875 -4.15625 C 10.164062 -4.695312 10.3125 -5.34375 10.3125 -6.09375 Z M 10.3125 -6.09375 "/></g></g></g><g fill="#000000" fill-opacity="1"><g transform="translate(18.868848, 44.624995)"><g><path d="M 6.296875 -12.390625 C 7.203125 -12.390625 8 -12.207031 8.6875 -11.84375 C 9.375 -11.488281 9.914062 -11.023438 10.3125 -10.453125 L 10.3125 -12.1875 L 13.421875 -12.1875 L 13.421875 0.09375 C 13.421875 1.21875 13.191406 2.222656 12.734375 3.109375 C 12.285156 3.992188 11.601562 4.695312 10.6875 5.21875 C 9.78125 5.738281 8.679688 6 7.390625 6 C 5.660156 6 4.238281 5.597656 3.125 4.796875 C 2.019531 3.992188 1.394531 2.894531 1.25 1.5 L 4.3125 1.5 C 4.46875 2.050781 4.8125 2.492188 5.34375 2.828125 C 5.882812 3.160156 6.535156 3.328125 7.296875 3.328125 C 8.191406 3.328125 8.914062 3.054688 9.46875 2.515625 C 10.03125 1.984375 10.3125 1.175781 10.3125 0.09375 L 10.3125 -1.796875 C 9.914062 -1.234375 9.367188 -0.757812 8.671875 -0.375 C 7.984375 0.0078125 7.191406 0.203125 6.296875 0.203125 C 5.265625 0.203125 4.320312 -0.0625 3.46875 -0.59375 C 2.625 -1.125 1.953125 -1.867188 1.453125 -2.828125 C 0.960938 -3.785156 0.71875 -4.890625 0.71875 -6.140625 C 0.71875 -7.367188 0.960938 -8.457031 1.453125 -9.40625 C 1.953125 -10.363281 2.625 -11.097656 3.46875 -11.609375 C 4.3125 -12.128906 5.253906 -12.390625 6.296875 -12.390625 Z M 10.3125 -6.09375 C 10.3125 -6.84375 10.164062 -7.484375 9.875 -8.015625 C 9.582031 -8.554688 9.1875 -8.96875 8.6875 -9.25 C 8.1875 -9.539062 7.648438 -9.6875 7.078125 -9.6875 C 6.503906 -9.6875 5.976562 -9.546875 5.5 -9.265625 C 5.019531 -8.984375 4.628906 -8.570312 4.328125 -8.03125 C 4.023438 -7.5 3.875 -6.867188 3.875 -6.140625 C 3.875 -5.398438 4.023438 -4.753906 4.328125 -4.203125 C 4.628906 -3.660156 5.023438 -3.242188 5.515625 -2.953125 C 6.003906 -2.660156 6.523438 -2.515625 7.078125 -2.515625 C 7.648438 -2.515625 8.1875 -2.65625 8.6875 -2.9375 C 9.1875 -3.21875 9.582031 -3.625 9.875 -4.15625 C 10.164062 -4.695312 10.3125 -5.34375 10.3125 -6.09375 Z M 10.3125 -6.09375 "/></g></g></g><g fill="#000000" fill-opacity="1"><g transform="translate(32.044193, 44.624995)"><g><path d="M 7.109375 -9.65625 L 4.96875 -9.65625 L 4.96875 0 L 1.84375 0 L 1.84375 -9.65625 L 0.46875 -9.65625 L 0.46875 -12.1875 L 1.84375 -12.1875 L 1.84375 -12.796875 C 1.84375 -14.296875 2.269531 -15.394531 3.125 -16.09375 C 3.976562 -16.800781 5.257812 -17.132812 6.96875 -17.09375 L 6.96875 -14.5 C 6.226562 -14.507812 5.707031 -14.382812 5.40625 -14.125 C 5.113281 -13.863281 4.96875 -13.382812 4.96875 -12.6875 L 4.96875 -12.1875 L 7.109375 -12.1875 Z M 7.109375 -9.65625 "/></g></g></g><g fill="#000000" fill-opacity="1"><g transform="translate(37.894842, 44.624995)"><g><path d="M 16.65625 -12.359375 C 18.144531 -12.359375 19.347656 -11.898438 20.265625 -10.984375 C 21.179688 -10.066406 21.640625 -8.789062 21.640625 -7.15625 L 21.640625 0 L 18.5625 0 L 18.5625 -6.734375 C 18.5625 -7.679688 18.316406 -8.410156 17.828125 -8.921875 C 17.347656 -9.429688 16.691406 -9.6875 15.859375 -9.6875 C 15.023438 -9.6875 14.363281 -9.429688 13.875 -8.921875 C 13.382812 -8.410156 13.140625 -7.679688 13.140625 -6.734375 L 13.140625 0 L 10.046875 0 L 10.046875 -6.734375 C 10.046875 -7.679688 9.804688 -8.410156 9.328125 -8.921875 C 8.847656 -9.429688 8.1875 -9.6875 7.34375 -9.6875 C 6.5 -9.6875 5.828125 -9.429688 5.328125 -8.921875 C 4.835938 -8.410156 4.59375 -7.679688 4.59375 -6.734375 L 4.59375 0 L 1.515625 0 L 1.515625 -12.1875 L 4.59375 -12.1875 L 4.59375 -10.71875 C 4.988281 -11.226562 5.5 -11.628906 6.125 -11.921875 C 6.75 -12.210938 7.4375 -12.359375 8.1875 -12.359375 C 9.132812 -12.359375 9.984375 -12.15625 10.734375 -11.75 C 11.484375 -11.351562 12.0625 -10.78125 12.46875 -10.03125 C 12.863281 -10.738281 13.4375 -11.300781 14.1875 -11.71875 C 14.945312 -12.144531 15.769531 -12.359375 16.65625 -12.359375 Z M 16.65625 -12.359375 "/></g></g></g><g fill="#000000" fill-opacity="1"><g transform="translate(59.208732, 44.624995)"><g><path d="M 3.078125 -13.640625 C 2.535156 -13.640625 2.082031 -13.8125 1.71875 -14.15625 C 1.363281 -14.5 1.1875 -14.925781 1.1875 -15.4375 C 1.1875 -15.957031 1.363281 -16.390625 1.71875 -16.734375 C 2.082031 -17.078125 2.535156 -17.25 3.078125 -17.25 C 3.617188 -17.25 4.066406 -17.078125 4.421875 -16.734375 C 4.785156 -16.390625 4.96875 -15.957031 4.96875 -15.4375 C 4.96875 -14.925781 4.785156 -14.5 4.421875 -14.15625 C 4.066406 -13.8125 3.617188 -13.640625 3.078125 -13.640625 Z M 4.59375 -12.1875 L 4.59375 0 L 1.515625 0 L 1.515625 -12.1875 Z M 4.59375 -12.1875 "/></g></g></g><g fill="#000000" fill-opacity="1"><g transform="translate(63.585644, 44.624995)"><g><path d="M 2.875 0.15625 C 2.320312 0.15625 1.863281 -0.015625 1.5 -0.359375 C 1.144531 -0.703125 0.96875 -1.132812 0.96875 -1.65625 C 0.96875 -2.164062 1.144531 -2.59375 1.5 -2.9375 C 1.863281 -3.28125 2.320312 -3.453125 2.875 -3.453125 C 3.425781 -3.453125 3.875 -3.28125 4.21875 -2.9375 C 4.570312 -2.59375 4.75 -2.164062 4.75 -1.65625 C 4.75 -1.132812 4.570312 -0.703125 4.21875 -0.359375 C 3.875 -0.015625 3.425781 0.15625 2.875 0.15625 Z M 2.875 0.15625 "/></g></g></g></svg>